<svg id="Layer_1" xmlns="http://www.w3.org/2000/svg" viewBox="0 0 580 108.2"><style>.st0{fill:#6a6a6a}.st1{fill:#f15928}</style><path class="st0" d="M0 0h7v108.2H0zm10 11.1h7.3v97.1H10zm11.2-5.3h13v102.4h-13zM37.8 0h7.9v108.2h-7.9zM49 15.8h13v92.4H49zm16.1-6.7h9.7v99.1h-9.7zm39 1.4h11.2v97.8h-11.2zM119.6 0h5.4v108.2h-5.4z"/><path transform="rotate(-6.615 89.411 54.582)" class="st1" d="M83.2 1.3h12.4v106.5H83.2z"/><path class="st0" d="M178.4 42.4v3c0 8.6-2.4 14.1-7.6 16.9 6.3 2.8 8.8 9.1 8.8 18v6.8c0 12.9-6.1 19.9-17.8 19.9h-18.5V23.1H161c12.1 0 17.4 6.4 17.4 19.3zM155 35.1v22.2h4.6c4.4 0 7.1-2.2 7.1-8.9v-4.7c0-6-1.8-8.6-6-8.6H155zm0 34.1V95h6.7c4 0 6.1-2 6.1-8.3v-7.3c0-7.8-2.2-10.2-7.6-10.2H155zm29.2-25.9c0-13.4 6.3-21.1 17.8-21.1s17.8 7.7 17.8 21.1v43.6c0 13.4-6.3 21.1-17.8 21.1s-17.8-7.7-17.8-21.1V43.3zM196 87.7c0 6 2.3 8.3 6.1 8.3 3.7 0 6.1-2.3 6.1-8.3V42.4c0-6-2.4-8.3-6.1-8.3-3.7 0-6.1 2.3-6.1 8.3v45.3zm28.8-44.4c0-13.4 6.3-21.1 17.8-21.1s17.8 7.7 17.8 21.1v43.6c0 13.4-6.3 21.1-17.8 21.1s-17.8-7.7-17.8-21.1V43.3zm11.8 44.4c0 6 2.3 8.3 6.1 8.3 3.7 0 6.1-2.3 6.1-8.3V42.4c0-6-2.4-8.3-6.1-8.3-3.7 0-6.1 2.3-6.1 8.3v45.3zm44.9-14.1l-3.6 7.7V107h-11.8V23.1h11.8v36.5l15.4-36.5H305l-16.3 37.4L305 107h-12.1l-11.4-33.4z"/><path class="st1" d="M323.9 22.2c11.4 0 17.3 7.7 17.3 21.1v2.6h-11.1v-3.5c0-6-2.1-8.3-5.9-8.3-3.7 0-5.9 2.3-5.9 8.3 0 17.2 23 20.5 23 44.4 0 13.4-6 21.1-17.5 21.1s-17.5-7.7-17.5-21.1v-5.1h11.1v6c0 6 2.3 8.1 6.1 8.1 3.7 0 6.1-2.2 6.1-8.1 0-17.2-23-20.5-23-44.4 0-13.5 5.9-21.1 17.3-21.1zm57 53.5v11.1c0 13.4-6 21.1-17.5 21.1s-17.5-7.7-17.5-21.1V43.3c0-13.4 6-21.1 17.5-21.1s17.5 7.7 17.5 21.1v8.1h-11.1v-9c0-6-2.4-8.3-6.1-8.3-3.7 0-6.1 2.3-6.1 8.3v45.3c0 6 2.3 8.1 6.1 8.1 3.7 0 6.1-2.2 6.1-8.1v-12h11.1zm4.8-32.4c0-13.4 6.3-21.1 17.8-21.1s17.8 7.7 17.8 21.1v43.6c0 13.4-6.3 21.1-17.8 21.1s-17.8-7.7-17.8-21.1V43.3zm11.7 44.4c0 6 2.4 8.3 6.1 8.3 3.7 0 6.1-2.3 6.1-8.3V42.4c0-6-2.4-8.3-6.1-8.3-3.7 0-6.1 2.3-6.1 8.3v45.3zm40.9-64.6v64.7c0 6 2.3 8.1 6.1 8.1 3.7 0 6.1-2.2 6.1-8.1V23.1h11.1V87c0 13.4-6 21.1-17.5 21.1s-17.5-7.7-17.5-21.1V23.1h11.7zm27.3 0h36.3v12h-12.3V107h-11.7V35.1h-12.3v-12zm52.3 35.4H534v12h-16.1V95h20.3v12h-32.1V23.1h32.1v12h-20.3v23.4zM568 107c-.6-2.2-1.1-3.5-1.1-10.3V83.5c0-7.8-2.4-10.7-7.7-10.7h-4.1V107h-11.8V23.1H561c12.2 0 17.4 6.3 17.4 19.3V49c0 8.6-2.5 14.3-7.7 17 5.9 2.8 7.8 9.1 7.8 17.8v12.9c0 4.1.1 7.1 1.3 10.2H568zm-12.8-71.9v25.8h4.6c4.4 0 7.1-2.2 7.1-8.9v-8.3c0-6-1.8-8.6-6-8.6h-5.7z"/></svg>